<svg version="1" xmlns="http://www.w3.org/2000/svg" width="2133.333" height="2133.333" viewBox="0 0 1600.000000 1600.000000"><path d="M223.2 223.3L200 246.6l4.1 9.5c2.2 5.2 4.7 10.7 5.4 12.4.8 1.6 8.2 18.7 16.5 38 23.3 53.8 28 64.5 31.1 71.3 1.6 3.5 2.9 6.5 2.9 6.8 0 .3 1.6 4 3.6 8.2l3.5 7.7 13.6 9c7.5 4.9 14.2 9.6 14.9 10.2.7.7 1.5 1.3 1.9 1.3.3 0 3.4 1.9 6.8 4.3s14.8 10.1 25.2 17.2c10.5 7.1 28.5 19.3 40 27.1l21 14.3 39.2 38.8c21.5 21.3 79 78.3 127.6 126.6l88.4 87.8-14.1 14.2c-23.6 23.6-31.3 35.8-32 50.9-.5 10.1 2.4 18.4 9.9 28.2l3.6 4.8-3.8 3.5c-2.1 1.9-11.3 10.7-20.5 19.5-9.1 8.8-17.5 16.7-18.6 17.6-1.1.9-10.6 10-21.2 20.2s-21 20.1-23 22c-2 1.9-11.8 11.2-21.6 20.6-9.8 9.4-19.5 18.6-21.4 20.4-1.9 1.8-10.9 10.3-20 19s-18.1 17.2-20 19c-1.9 1.8-11.8 11.2-22 21-10.2 9.7-20.7 19.8-23.5 22.4-2.7 2.6-12 11.4-20.5 19.6-8.5 8.1-17.5 16.7-20 19-2.5 2.3-12.3 11.7-21.9 20.9-9.6 9.1-19.1 18.2-21.1 20.1-25.4 24-34 32.1-36.5 34.4-1.6 1.5-8.3 7.7-14.7 13.8-17 15.9-17.8 16.7-22.8 19.9-2.4 1.6-6.8 5.9-9.7 9.5-13.8 17.4-23.2 37.7-27.9 60.4-2.2 10.2-2.5 38.4-.6 47 .7 3 1.4 6.5 1.7 7.8.9 4.9 5.9 18.1 9.8 25.9 9.8 19.8 27.4 37.5 47.3 47.7 7.3 3.7 18.5 8.2 22.6 9 14.8 3.1 19.7 3.8 28.4 4 29.2.8 56.8-7.7 80.8-24.9 11.1-7.9 22.1-18.6 48.6-47.5 1.8-1.9 9-9.6 16-17s14.2-15.1 16-17c1.8-1.9 8.8-9.4 15.5-16.5 6.8-7.2 14-14.8 16.1-17 2-2.2 10.5-11.2 18.9-20 8.3-8.8 16.9-17.9 19.1-20.1 2.1-2.3 10.7-11.3 19-20 8.4-8.8 17.4-18.2 20-21 2.7-2.8 11.5-12.1 19.5-20.5 8-8.5 16.1-17 18-19 1.9-2 10-10.6 18-19 8.1-8.5 16.1-17 17.9-18.9 4.5-4.8 28.6-30.4 33.5-35.5 3.4-3.6 13.9-14.7 32-34 4.8-5.1 27.8-29.4 34.9-36.9 23.3-24.7 29.1-30.9 33.6-35.8l5.3-5.8 8 7.8c16.7 16.1 39.6 39.7 48.5 50 12.8 14.8 14.5 16.7 20.7 23.7 5.4 6.1 20.9 24.9 31.7 38.5 3.3 4.1 6.5 8.2 7.1 9 2.5 3.1 18.5 23.8 24.8 32 14.9 19.5 46 62.3 77.3 106.5 48.9 69 56.5 79.6 71.5 98.9 9.4 12 20.3 24.9 25.1 29.4 32.4 30.7 62.9 46.7 98.5 51.9 6 .8 26.4 1 31 .2 2.2-.4 6-1 8.5-1.4 16.5-2.3 43.3-13.1 59.8-24 3-1.9 5.7-3.5 6.2-3.5s1-.4 1.2-.8c.2-.4 3.2-3 6.8-5.7 9-6.7 21.4-17.9 28-25 3-3.3 5.8-6.2 6.1-6.5 1.8-1.5 13.6-17.2 17.4-23 12.3-18.9 21.8-42.8 24-60.5.4-2.8.8-5.7 1.1-6.6.7-2.4.6-23.9-.1-28.4-.7-4.8-2.3-14.1-3-17.4-.5-2.9-5.2-17.8-6.4-20.6-13.8-31.3-29.8-53.8-54.1-76-10.5-9.6-39.1-31.7-65.5-50.6-4.9-3.5-9.4-6.8-10-7.2-.5-.4-8.9-6.4-18.5-13.3s-18.4-13.2-19.5-14c-43.6-31.2-101.4-73.6-110.5-81-.8-.7-9.4-7.5-19-15-21.2-16.6-56.8-45.9-60-49.4-.4-.4-12.8-11.4-18.6-16.5-16.3-14.3-48.3-46.1-61.7-61.4l-2.8-3.2 6.9-7.2c8.8-9.3 19.1-20.1 36.7-38.9 30.2-32.1 33.9-35.7 37.9-37.3 6.9-2.8 21.7-1.9 38.1 2.2 3.3.8 6.7 1.6 7.5 1.8 2.2.5 36.9 8.4 41.5 9.5 4 .9 7 1.5 13.5 2.5 1.9.3 4.2.8 5 1 .8.2 4 .7 7 1.1 3 .3 6.6.8 8 1 4.9.7 19.7 1.5 29.5 1.6 9.4.2 28.2-.9 29.4-1.7.3-.1 2.7-.6 5.3-.9 14.2-1.9 37.2-9.6 52.8-17.8 8.5-4.4 25.6-15.4 28.6-18.2.6-.6 2.9-2.4 5-4 5.9-4.5 28.1-27 36-36.6 21.3-25.7 37-52.1 47.6-80.5 2.7-7.1 5.7-16.2 6.3-19 .1-.6.7-2.9 1.4-5.2 5.7-20.1 8.5-42.8 8.5-68.3 0-29.7-3-52.5-11-84.3l-2.7-10.9-76.3 76.4-76.3 76.3-6.8-.1c-8.2-.2-25.4-4.2-38.3-9-28.7-10.7-60-31.8-76-51.4-1.9-2.4-3.9-4.8-4.5-5.4-.5-.6-2.3-2.9-3.9-5.1-1.7-2.2-3.3-4.2-3.6-4.5-1.7-1.4-11.7-18.2-16.2-27.1-7.1-14.2-13.6-32.6-15.4-43.9-.3-1.9-.9-5.1-1.4-7-.4-1.9-.8-5.6-.9-8.1-.1-5.1-1.8-3.2 30.1-34.1 6.4-6.2 26.6-26 45-44 18.3-17.9 43.2-42.3 55.3-54.1 12.1-11.8 21.8-21.8 21.5-22-.6-.7-19.7-5.8-23.2-6.2-1.5-.2-4.4-.9-6.5-1.4-5.8-1.6-29.6-5-39.3-5.6-9.8-.6-38.1-.6-45.5 0-7 .6-20.7 2.3-25 3.1-1.1.2-3.3.7-5 1-33.4 5.8-72 21.6-102 41.7-25.7 17.1-53.7 43.2-68 63.4-19.6 27.7-30.7 58-34.1 93.3-.7 7.5-.7 34.6.1 39.9.2 2 .7 6.5 1 10.1.3 3.6.8 7.6 1 9 .2 1.4.7 4.5 1 7 .3 2.5 1.1 7.2 1.6 10.5.6 3.3 1.3 7.1 1.5 8.5.3 1.4.7 3.2.9 4 .2.8.7 3.1 1 5 .3 1.9 1.5 7.7 2.6 12.9 2.3 10.6 2.1 9.6 4.4 21.6.9 4.9 2 10.9 2.5 13.3 1.4 7.7.6 23.3-1.4 27.2-1.9 3.6-2.8 4.5-20.6 20.8-5.8 5.3-13.6 12.6-17.3 16.2l-6.8 6.6-6.2-5.9c-11.6-11-26-15.7-38.8-12.7-13.3 3.1-24.9 11-44.6 30.5l-13.2 13.1-46-45.6c-25.3-25-82.9-82.1-127.9-126.8-90.8-90-79.5-77.4-110.5-123.7-7.8-11.6-14.5-21.5-15-22-1.2-1.5-35.5-52.4-37.9-56.3-1.1-1.7-2.4-3.2-2.8-3.2-.5 0-3.7-1.3-7.2-2.9-3.5-1.6-9.2-4.1-12.8-5.6-3.6-1.5-8.4-3.6-10.7-4.6-6.6-2.9-12.2-5.4-19.3-8.4-3.6-1.5-8.7-3.8-11.5-5-2.7-1.3-9.9-4.4-16-7-6-2.6-13.4-5.8-16.3-7.1-2.9-1.3-5.5-2.4-5.7-2.4-.2 0-2.8-1.1-5.7-2.4-4.8-2.2-43.9-19.3-46.3-20.2-.5-.2-11.5 10.1-24.3 22.9zm116.8 994c17.3 2.2 34.4 16.6 40.5 34.3 8.7 24.7-5.4 52.5-31.5 62.1-5.6 2.1-10 2.7-17.3 2.6-21.3-.5-41.5-17.3-47-39.3-2.5-9.7-.4-25.1 4.5-33.9 5.5-9.9 13.8-17.8 22.7-21.8 6.7-3 7.9-3.3 15.6-4 3.3-.3 6.2-.7 6.3-.9.2-.1.9-.1 1.5.1.7.2 2.8.6 4.7.8z"/></svg>